<?xml version="1.0" encoding="utf-8"?>
<!-- Generator: Adobe Illustrator 22.1.0, SVG Export Plug-In . SVG Version: 6.00 Build 0)  -->
<svg version="1.1" xmlns="http://www.w3.org/2000/svg" xmlns:xlink="http://www.w3.org/1999/xlink" x="0px" y="0px"
	 viewBox="0 0 137 67.8" style="enable-background:new 0 0 137 67.8;" xml:space="preserve">
<style type="text/css">
	.st0{opacity:0.6;fill:#2E6C85;enable-background:new    ;}
	.st1{fill:#2E6C85;}
</style>
<g id="Layer_2">
</g>
<g id="Layer_1">
	<g transform="translate(-7681 5341)">
		<path class="st0" d="M7688.4-5332.6h75.7l2.7-2l1.2,0.8l0.3-2.8l2.5-0.9l2,0.2l1.2-2l5.3-1.7l1.5,0.9h1.2l0.3,1.5l-1.4,0.5
			l0.2,1.2l0.9-0.5l2.3,5.4l-13.6,16l13,8.6l4.4,6.9l1.8,2.1l4,0.8l0.8,6l5.1,2.8l4.1-0.2l-1.5,1.4l2.8-0.3l1.8-1.4l7.5-2.3l0.3-4.1
			l-1.4-2.8l-1.5,2.3l-0.3-5.4l-4.3-2.3l-0.2,2l-1.8-2.3l1.4-0.9l4.8,1.4l3.8,4.6l2.1,5.5l0.5,6.4l-1.2-3.1l-1.1,2.1l1.7,1.7
			c0,0-0.1,0.9-0.3,2.1c-0.2,1.7-0.5,3.7-0.5,3.7l-1.5,0.3l0.9-4.3l-0.8-0.8l-13.2,1.8l-0.8,1.4l-1.8,0.2l0.6-1.5l-1.8,1.7l-0.8,2.5
			l-6,0.5l-2,1.2l0.8-2.1l0.3-4.3l0.8-2.3l-1.8-2.3l-5.1,5.8l-3.8,0.5l-2.5,2.3l1.5,1.7l-2.5,2l-4.3,0.3l-0.9-4.9l-5.6-7.5l-2.5-0.5
			v-5.6h-2.5l0.2-4.9H7681L7688.4-5332.6z"/>
		<path class="st1" d="M7751-5322l-0.5,3.1l2.1,1.3l-0.6,2l2.5,3.1l-1.4,1v2.6l1.2,0.3l0.2,2.6l2.6,2.6l0.3,2.8l4,0.3l2.9-1.8
			l1.2,0.9l8.3-3.8l-0.7-1.5l1-0.8l1.2,1.2l1.8-0.9h1.4l2.1,2.7l1.2-0.4l0.6,2.9l6.2,0.9l0.6-1.5l1.2,0.8l-1.4,1.5l2.7-1.2l-2-2.9
			l-3.1-5.5l-2.2-2.2l-3.5-1.5l-1.3-1.5l-2,0.6l1.5,0.6l0.5,1.2l-2,0.2l-0.5-1.2l-0.6,0.6l-1-0.8l0.7-0.8l-1.7-0.1l1.2-1.5l1.8-0.7
			l-0.9-2.6l0.8-1.6l0.3,1.3h1.7l-0.7-1.2l0.2-0.8h1.5l0.5-0.9l1.6-0.8l-1.8-1.8l5.8-1.9l1.5-1.6v1.3l1.2-0.3l0.5-1.8l1.4-0.8v-1.5
			l-1.4,0.4v-1.1h-1.5l-0.9,1.6l-2.8,0.4l0.8-0.9l-1.9-0.6l-0.4-1.2l-0.8,0.3l-0.5-1.2l-5.1,2.4l-0.1,2.5l-1.9-0.6l-2.3,1.6h-1.8
			l-1.2-0.4l-0.9,1.5l-1.4,0.9v2l-2.5-0.3l-1.3-1.4h-1.8l-1,1.4h-1.5l-1.7-2.5l-2,1.6l0.2,2.1l-1,0.8l0.5,1.2l-1.7,0.1L7751-5322z"
			/>
		<path class="st1" d="M7681.2-5273.6h4.3v-17.7l7.7,11.5h0.1l7.7-11.6v17.7h4.3v-24.6h-4.5l-7.5,11.6l-7.5-11.6h-4.6V-5273.6z
			 M7710.1-5273.6h4.4l2.5-6h11.6l2.5,6h4.6l-10.8-24.9h-4L7710.1-5273.6z M7718.7-5283.4l4.2-9.8l4.3,9.8H7718.7z M7740.4-5273.6
			h4.4v-8h4.9c5.4,0,9.8-2.9,9.8-8.4v-0.1c0-4.9-3.7-8.3-9.4-8.3h-9.7L7740.4-5273.6L7740.4-5273.6z M7744.8-5285.5v-8.9h5
			c3.2,0,5.3,1.5,5.3,4.4v0.1c0,2.6-2.1,4.4-5.3,4.4L7744.8-5285.5z M7775.9-5273.2c3.8,0.1,7.5-1.5,10-4.4l-2.8-2.8
			c-2.1,2-4.1,3.2-7.1,3.2c-4.7,0-8.2-4-8.2-8.8v-0.1c0-4.8,3.5-8.7,8.2-8.7c2.6,0.1,5.1,1.2,6.9,3l2.8-3.2c-2.5-2.6-6-4-9.6-3.9
			c-6.9-0.1-12.7,5.4-12.8,12.3c0,0.1,0,0.3,0,0.4v0.1c-0.2,6.9,5.2,12.6,12.1,12.8C7775.6-5273.2,7775.8-5273.2,7775.9-5273.2
			L7775.9-5273.2z"/>
	</g>
</g>
</svg>
