<svg xmlns="http://www.w3.org/2000/svg" viewBox="-7681 5341 137 67.82"><defs><style>.a,.b{fill:#fff;}.a{opacity:0.6;}</style></defs><g transform="translate(-7681 5341)"><path class="a" d="M7.431,8.373H83.1l2.721-1.989,1.151.837L87.286,4.4,89.8,3.454l1.989.209,1.151-1.989L98.276,0l1.465.942h1.151l.314,1.465-1.361.523.209,1.151L101,3.558,103.3,9,89.694,25.014,102.672,33.6l4.4,6.908,1.779,2.093,3.977.837.837,5.966,5.128,2.826,4.082-.209-1.465,1.361,2.826-.314,1.779-1.361,7.536-2.3.314-4.082L132.5,42.492l-1.465,2.3-.314-5.442-4.291-2.3-.209,1.989-1.779-2.3,1.361-.942,4.814,1.361,3.768,4.605,2.093,5.547L137,53.691l-1.151-3.14L134.7,52.644l1.675,1.675s-.1.942-.314,2.093c-.209,1.675-.523,3.663-.523,3.663l-1.465.314.942-4.291-.837-.837L120.987,57.04,120.15,58.4l-1.779.209L119,57.144l-1.779,1.675-.837,2.512-5.966.523-1.989,1.151.837-2.093.314-4.291.837-2.3-1.779-2.3-5.128,5.756-3.768.523-2.512,2.3,1.465,1.675-2.512,1.989-4.291.314-.942-4.919L85.4,52.121,82.891,51.6V46.05H80.379l.209-4.919H0L7.431,8.373Z"/><path class="b" d="M66.923,18.727l-.523,3.14,2.093,1.256-.628,1.989,2.512,3.14L69.016,29.3v2.617l1.151.314.209,2.617,2.617,2.617.314,2.826,3.977.314,2.93-1.779,1.151.942L89.635,36,88.9,34.53l1.047-.837L91.1,34.844l1.779-.942H94.24l2.093,2.721,1.151-.419.628,2.93,6.175.942.628-1.465,1.151.837-1.361,1.465,2.721-1.151-1.989-2.93-3.14-5.547-2.2-2.2-3.454-1.465-1.256-1.465-1.989.628,1.465.628.523,1.151-1.989.209-.523-1.151-.628.628L91.2,27.413l.733-.837-1.675-.1,1.151-1.465,1.779-.733-.942-2.617.837-1.57.314,1.256h1.675l-.733-1.151.209-.837h1.465l.523-.942,1.57-.837L96.333,15.8l5.756-1.884,1.465-1.57V13.6l1.151-.314.523-1.779,1.361-.837V9.2l-1.361.419V8.47h-1.465l-.942,1.57L100,10.458l.837-.942-1.884-.628-.419-1.151-.837.314L97.17,6.9,92.042,9.307l-.1,2.512-1.884-.628-2.3,1.57H85.971l-1.151-.419-.942,1.465-1.361.942v1.989l-2.512-.314L78.75,15.063H76.971l-1.047,1.361H74.459l-1.675-2.512L70.8,15.482l.209,2.093-1.047.837.523,1.151-1.675.1Z" transform="translate(3.094 0.322)"/><path class="b" d="M.2,65.523H4.491V47.836l7.745,11.513h.1l7.745-11.617V65.418h4.291v-24.6h-4.5L12.341,52.441,4.805,40.823H.2v24.7Zm28.886,0h4.4l2.512-5.966H47.611l2.512,5.966h4.605L43.948,40.614H39.971L29.086,65.523Zm8.582-9.838,4.186-9.838,4.291,9.838Zm21.769,9.838h4.4V57.569h4.919c5.442,0,9.838-2.93,9.838-8.373v-.1c0-4.919-3.663-8.268-9.419-8.268H59.438v24.7Zm4.4-11.931V44.7h5.024c3.244,0,5.338,1.465,5.338,4.4v.1c0,2.617-2.093,4.4-5.338,4.4Zm31.084,12.35a12.775,12.775,0,0,0,10.047-4.4l-2.826-2.826c-2.093,1.989-4.082,3.244-7.117,3.244-4.71,0-8.163-3.977-8.163-8.791v-.1c0-4.814,3.454-8.687,8.163-8.687a10.022,10.022,0,0,1,6.908,3.035l2.826-3.244A12.785,12.785,0,0,0,95.127,40.3,12.556,12.556,0,0,0,82.358,53.069v.1A12.447,12.447,0,0,0,94.917,65.942Z" transform="translate(0.009 1.878)"/></g></svg>